# AST/ASF file generated using VICON BodyLanguage
# -----------------------------------------------
:version 1.10
:name VICON
:units
  mass 1.0
  length 0.45
  angle deg
:documentation
   .ast/.asf automatically generated from VICON data using
   VICON BodyBuilder and BodyLanguage model FoxedUp or BRILLIANT.MOD
:root
   order TX TY TZ RX RY RZ
   axis XYZ
   position 0 0 0  
   orientation 0 0 0 
:bonedata
  begin
     id 1 
     name lhipjoint
     direction 0.650112 -0.723553 0.232005 
     length 2.45805 
     axis 0 0 0  XYZ
  end
  begin
     id 2 
     name lfemur
     direction 0.34202 -0.939693 0  
     length 7.00073  
     axis 0 0 20  XYZ
    dof rx ry rz
    limits (-160.0 20.0)
           (-70.0 70.0)
           (-60.0 70.0)
  end
  begin
     id 3 
     name ltibia
     direction 0.34202 -0.939693 0   
     length 7.8748   
     axis 0 0 20   XYZ
    dof rx
    limits (-10.0 170.0)
  end
  begin
     id 4 
     name lfoot
     direction 0.0542825 -0.14914 0.987325   
     length 1.75978   
     axis -90 7.62852e-016 20   XYZ
    dof rx rz
    limits (-45.0 90.0)
           (-70.0 20.0)
  end
  begin
     id 5 
     name ltoes
     direction 1.53509e-011 -4.21906e-011 1   
     length 0.893912   
     axis -90 7.62852e-016 20   XYZ
    dof rx
    limits (-90.0 20.0)
  end
  begin
     id 6 
     name rhipjoint
     direction -0.637897 -0.733345 0.235145   
     length 2.42522  
     axis 0 0 0  XYZ 
  end
  begin
     id 7 
     name rfemur
     direction -0.34202 -0.939693 0   
     length 7.02549   
     axis 0 0 -20   XYZ
    dof rx ry rz
    limits (-160.0 20.0)
           (-70.0 70.0)
           (-70.0 60.0)
  end
  begin
     id 8 
     name rtibia
     direction -0.34202 -0.939693 0   
     length 7.71512   
     axis 0 0 -20   XYZ
    dof rx
    limits (-10.0 170.0)
 end
 begin
     id 9 
     name rfoot
     direction -0.0822618 -0.226012 0.970645   
     length 1.90014  
     axis -90 -7.62852e-016 -20   XYZ
    dof rx rz
    limits (-45.0 90.0)
           (-20.0 70.0)
  end
  begin
     id 10 
     name rtoes
     direction -1.53542e-011 -4.21872e-011 1   
     length 0.957341   
     axis -90 -7.62852e-016 -20   XYZ
    dof rx
    limits (-90.0 20.0)
  end
  begin
     id 11 
     name lowerback
     direction -0.0022947 0.999774 -0.0211557   
     length 1.89909   
     axis 0 0 0   XYZ
    dof rx ry rz
    limits (-20.0 45.0)
           (-30.0 30.0)
           (-30.0 30.0)
  end
  begin
     id 12 
     name upperback
     direction 0.0107737 0.998635 0.0511027   
     length 1.8853   
     axis 0 0 0   XYZ
    dof rx ry rz
    limits (-20.0 45.0)
           (-30.0 30.0)
           (-30.0 30.0)
  end
  begin
     id 13 
     name thorax
     direction 0.011824 0.998136 0.0598754   
     length 1.88911   
     axis 0 0 0   XYZ
    dof rx ry rz
    limits (-20.0 45.0)
           (-30.0 30.0)
           (-30.0 30.0)
  end
  begin
     id 14 
     name lowerneck
     direction -0.0685355 0.990319 0.120714   
     length 1.91222   
     axis 0 0 0   XYZ
    dof rx ry rz
    limits (-20.0 45.0)
           (-30.0 30.0)
           (-30.0 30.0)
  end
  begin
     id 15 
     name upperneck
     direction 0.0886204 0.955665 -0.280805   
     length 1.92526   
     axis 0 0 0   XYZ
    dof rx ry rz
    limits (-20.0 45.0)
           (-30.0 30.0)
           (-30.0 30.0)
  end
  begin
     id 16
     name head
     direction 0.0233423 0.993502 -0.111393  
     length 1.96056  
     axis 0 0 0   XYZ
    dof rx ry rz
    limits (-20.0 45.0)
           (-30.0 30.0)
           (-30.0 30.0)
  end
  begin
     id 17 
     name lclavicle
     direction 0.941873 0.32922 0.0670041  
     length 3.31705  
     axis 0 0 0   XYZ
    dof ry rz
    limits (-20.0 10.0)
           (0.0 20.0)
  end
  begin
     id 18 
     name lhumerus
     direction 1 -4.4898e-011 3.38707e-028   
     length 5.29277   
     axis 180 -30 -90   XYZ
    dof rx ry rz
    limits (-60.0 90.0)
           (-90.0 90.0)
           (-90.0 90.0)
  end
  begin
     id 19
     name lradius
     direction 1 -4.48952e-011 1.63213e-028   
     length 2.85226   
     axis 180 -30 -90   XYZ
    dof rx
    limits (-10.0 170.0)
  end
  begin
     id 20
     name lwrist
     direction 1 -4.49001e-011 1.27856e-027   
     length 1.42613   
     axis -1.61767e-015 90 90   XYZ
    dof ry
    limits (-180.0 0.0)
 end
  begin
     id 21 
     name lhand
     direction 1 -4.48976e-011 2.55931e-027   
     length 0.602097   
     axis -1.63363e-015 90 90   XYZ
    dof rx rz
    limits (-90.0 90.0)
           (-45.0 45.0)
  end
  begin
     id 22 
     name lfingers
     direction 1 -4.48986e-011 5.11684e-027   
     length 0.485426   
     axis -3.26723e-015 90 90   XYZ
    dof rx
    limits (0.0 90.0)
  end
  begin
     id 23
     name lthumb
     direction 0.707107 -6.34915e-011 0.707107   
     length 0.696978   
     axis -90 45 -2.25915e-014   XYZ
    dof rx rz
    limits (-45.0 45.0)
           (-45.0 45.0)
  end
  begin
     id 24 
     name rclavicle
     direction -0.939974 0.327078 0.0973096   
     length 3.10337  
     axis 0 0 0   XYZ 
    dof ry rz
    limits (-10.0 20.0)
           (-20.0 0.0)
  end
  begin
     id 25 
     name rhumerus
     direction -1 -4.48975e-011 1.83745e-027  
     length 5.13304   
     axis 180 30 90   XYZ
    dof rx ry rz
    limits (-90.0 60.0)
           (-90.0 90.0)
           (-90.0 90.0)
  end
  begin
     id 26 
     name rradius
     direction -1 -4.48977e-011 7.1775e-029   
     length 2.74305   
     axis 180 30 90   XYZ
    dof rx
    limits (-10.0 170.0)
  end
  begin
     id 27 
     name rwrist
     direction -1 -4.48977e-011 1.27963e-027   
     length 1.37152   
     axis -1.61767e-015 -90 -90   XYZ
    dof ry
    limits (-180.0 0.0)
  end
  begin
     id 28
     name rhand
     direction -1 -4.4888e-011 2.56782e-027   
     length 0.767976   
     axis -1.63363e-015 -90 -90   XYZ
    dof rx rz
    limits (-90.0 90.0)
           (-45.0 45.0)
  end
  begin
     id 29
     name rfingers
     direction -1 -4.48947e-011 5.12384e-027   
     length 0.619162   
     axis -3.26723e-015 -90 -90   XYZ
    dof rx
    limits (0.0 90.0)
  end
  begin
     id 30
     name rthumb
     direction -0.707107 -6.34857e-011 0.707107   
     length 0.888997   
     axis -90 -45 2.25915e-014   XYZ
    dof rx rz
    limits (-45.0 45.0)
           (-45.0 45.0)
  end
:hierarchy
  begin
    root lhipjoint rhipjoint lowerback
    lhipjoint lfemur
    lfemur ltibia
    ltibia lfoot
    lfoot ltoes
    rhipjoint rfemur
    rfemur rtibia
    rtibia rfoot
    rfoot rtoes
    lowerback upperback
    upperback thorax
    thorax lowerneck lclavicle rclavicle
    lowerneck upperneck
    upperneck head
    lclavicle lhumerus
    lhumerus lradius
    lradius lwrist
    lwrist lhand lthumb
    lhand lfingers
    rclavicle rhumerus
    rhumerus rradius
    rradius rwrist
    rwrist rhand rthumb
    rhand rfingers
  end

#!OML:ASF F:\VICON\USERDATA\INSTALL\rory3\rory3.ASF
:FULLY-SPECIFIED
:DEGREES
333
root -0.503868 16.3475 0.189301 -9.1385 1.78524 -2.36037
lowerback -1.08439 -0.387216 -2.99645
upperback -5.05408 -0.799971 -6.26809
thorax -4.69017 -0.425955 -4.82838
lowerneck -11.7935 -13.0699 -21.3908
upperneck 13.0301 -15.5602 9.9838
head 8.45003 -7.74062 4.70104
rclavicle 3.18055e-015 -4.77083e-015
rhumerus 23.7191 -27.5621 -2.36975
rradius 93.8323
rwrist 21.0719
rhand -30.6045 18.6133
rfingers 7.12502
rthumb -3.90119 -11.3307
lclavicle 3.18055e-015 -4.77083e-015
lhumerus 46.0353 8.23871 31.6258
lradius 100.081
lwrist -8.1557
lhand -18.9237 17.9721
lfingers 7.12502
lthumb 7.37876 47.8234
rfemur -0.48869 2.51799 24.5733
rtibia 39.9169
rfoot -27.8395 -9.73837
rtoes -11.1455
lfemur -3.88747 -4.58995 -13.5853
ltibia 42.8393
lfoot -27.9618 -5.93645
ltoes -14.5559
334
root -0.50778 16.3133 0.176153 -9.40941 1.48746 -2.37287
lowerback -1.04754 -0.35255 -2.79517
upperback -4.90419 -0.745023 -6.32156
thorax -4.55295 -0.4076 -4.99797
lowerneck -11.9407 -12.9074 -21.297
upperneck 13.3142 -15.2426 9.50785
head 8.47256 -7.62484 4.5721
rclavicle -9.54166e-015 8.74653e-014
rhumerus 22.7292 -26.4124 -2.68098
rradius 99.8455
rwrist 20.342
rhand -30.3199 17.8406
rfingers 7.12502
rthumb -3.62636 -12.1083
lclavicle -9.54166e-015 8.74653e-014
lhumerus 43.1384 6.53588 31.4302
lradius 104.877
lwrist -8.02647
lhand -19.4772 17.6892
lfingers 7.12502
lthumb 6.84451 47.5586
rfemur -0.633548 2.49731 24.5861
rtibia 40.6319
rfoot -28.1385 -9.61094
rtoes -10.952
lfemur -3.9118 -4.19475 -13.4603
ltibia 43.4564
lfoot -28.2408 -5.95327
ltoes -14.7961
335
root -0.510366 16.2805 0.16593 -9.69251 1.1592 -2.40649
lowerback -1.00476 -0.344908 -2.58468
upperback -4.76292 -0.726654 -6.35991
thorax -4.43039 -0.407077 -5.15606
lowerneck -12.1051 -12.6978 -21.0894
upperneck 13.5338 -14.8788 9.05777
head 8.46442 -7.47922 4.44391
rclavicle 3.97569e-015 3.18055e-015
rhumerus 21.8875 -25.2023 -3.07525
rradius 105.886
rwrist 19.2148
rhand -29.2888 17.8654
rfingers 7.12502
rthumb -2.63058 -12.0981
lclavicle 3.97569e-015 3.18055e-015
lhumerus 39.9445 4.6584 31.3522
lradius 109.363
lwrist -8.48695
lhand -20.4831 17.3913
lfingers 7.12502
lthumb 5.87338 47.2899
rfemur -0.732635 2.49432 24.617
rtibia 41.3085
rfoot -28.4432 -9.43817
rtoes -11.0298
lfemur -3.83538 -3.79091 -13.3184
ltibia 44.0121
lfoot -28.5692 -5.96116
ltoes -15.0663
336
root -0.511071 16.2524 0.156118 -9.87909 0.919704 -2.31533
lowerback -1.10906 -0.372504 -2.49972
upperback -4.56612 -0.74465 -6.43431
thorax -4.16806 -0.419156 -5.27948
lowerneck -12.2987 -12.4622 -20.4641
upperneck 13.4902 -14.4747 8.27907
head 8.30932 -7.31313 4.15487
rclavicle 2.94201e-014 -3.49861e-014
rhumerus 21.1108 -23.9149 -3.34987
rradius 111.865
rwrist 18.3493
rhand -28.1596 17.9916
rfingers 7.12502
rthumb -1.54007 -11.9826
lclavicle 2.94201e-014 -3.49861e-014
lhumerus 36.6431 2.7463 31.5821
lradius 113.634
lwrist -9.75875
lhand -21.293 17.1787
lfingers 7.12502
lthumb 5.09143 47.0975
rfemur -0.903387 2.46631 24.4872
rtibia 41.9459
rfoot -28.7478 -9.21304
rtoes -11.2555
lfemur -3.82734 -3.47404 -13.3458
ltibia 44.4965
lfoot -28.8577 -5.92258
ltoes -15.3264
337
root -0.510676 16.2258 0.143862 -10.0145 0.670448 -2.15625
lowerback -1.21901 -0.409539 -2.43786
upperback -4.38173 -0.777635 -6.55609
thorax -3.9182 -0.438709 -5.44071
lowerneck -12.6102 -12.2428 -19.8803
upperneck 13.5555 -14.0945 7.62358
head 8.23387 -7.15053 3.90147
rclavicle -9.54166e-015 -8.26944e-014
rhumerus 20.4299 -22.4218 -3.6855
rradius 117.638
rwrist 18.1411
rhand -27.5047 18.0563
rfingers 7.12502
rthumb -0.907523 -11.9215
lclavicle -9.54166e-015 -8.26944e-014
lhumerus 33.2933 1.08035 31.6901
lradius 117.618
lwrist -11.0136
lhand -21.8366 16.6453
lfingers 7.12502
lthumb 4.56658 46.5761
rfemur -1.11744 2.47487 24.2807
rtibia 42.5212
rfoot -28.9292 -9.02193
rtoes -11.374
lfemur -3.86027 -3.19916 -13.4668
ltibia 44.9089
lfoot -29.0272 -5.95931
ltoes -15.4242
338
root -0.510453 16.2009 0.134279 -10.2052 0.348694 -2.07104
lowerback -1.30723 -0.453426 -2.30883
upperback -4.18251 -0.819142 -6.6652
thorax -3.66702 -0.464051 -5.62692
lowerneck -13.1926 -12.1224 -19.839
upperneck 14.0655 -13.8331 7.61338
head 8.46633 -7.02288 3.90067
rclavicle -2.3059e-014 -1.43125e-014
rhumerus 19.8904 -20.5833 -4.06901
rradius 122.977
rwrist 18.653
rhand -27.6353 18.1404
rfingers 7.12502
rthumb -1.03369 -11.8368
lclavicle -2.3059e-014 -1.43125e-014
lhumerus 29.7902 -0.319638 31.6435
lradius 121.362
lwrist -12.0159
lhand -22.3703 15.8425
lfingers 7.12502
lthumb 4.0512 45.7838
rfemur -1.22692 2.54244 24.1884
rtibia 43.0366
rfoot -29.1251 -8.96495
rtoes -11.5531
lfemur -3.78012 -2.88713 -13.5001
ltibia 45.2476
lfoot -29.2317 -5.92672
ltoes -15.7721
339
root -0.511733 16.1811 0.124517 -10.4168 0.0495443 -2.05487
lowerback -1.43796 -0.49815 -2.18776
upperback -3.87654 -0.850692 -6.7501
thorax -3.27925 -0.481083 -5.78244
lowerneck -13.8579 -12.0736 -19.7263
upperneck 14.4309 -13.6777 7.69072
head 8.68061 -6.92738 3.90149
rclavicle -1.98785e-014 2.38542e-014
rhumerus 19.3553 -18.6356 -4.19216
rradius 127.826
rwrist 19.5629
rhand -28.2257 18.209
rfingers 7.12502
rthumb -1.60387 -11.7647
lclavicle -1.98785e-014 2.38542e-014
lhumerus 26.1657 -1.75819 31.8775
lradius 124.945
lwrist -13.0312
lhand -22.824 15.0086
lfingers 7.12502
lthumb 3.61306 44.9577
rfemur -1.27698 2.58734 24.1791
rtibia 43.4938
rfoot -29.3484 -8.92694
rtoes -11.7894
lfemur -3.65346 -2.59605 -13.4494
ltibia 45.5289
lfoot -29.3915 -5.87481
ltoes -15.9688
340
root -0.511514 16.1645 0.113192 -10.6209 -0.136169 -1.90959
lowerback -1.5626 -0.548222 -2.18611
upperback -3.52118 -0.888735 -6.93679
thorax -2.84582 -0.498098 -5.97927
lowerneck -14.5527 -12.0507 -19.2775
upperneck 14.6692 -13.5988 7.64152
head 8.8328 -6.85659 3.80049
rclavicle 1.74931e-014 -1.36764e-013
rhumerus 18.7706 -16.6325 -4.10963
rradius 132.117
rwrist 20.3992
rhand -29.0434 18.266
rfingers 7.12502
rthumb -2.39363 -11.7003
lclavicle 1.74931e-014 -1.36764e-013
lhumerus 22.7325 -3.25128 32.3356
lradius 128.096
lwrist -14.1486
lhand -22.8811 13.9797
lfingers 7.12502
lthumb 3.55792 43.9298
rfemur -1.31647 2.60117 24.0046
rtibia 43.9111
rfoot -29.5227 -8.818
rtoes -11.7741
lfemur -3.55083 -2.40067 -13.5692
ltibia 45.7736
lfoot -29.4603 -6.09202
ltoes -15.1538
